<?xml version="1.0" standalone="no"?>
<!DOCTYPE svg PUBLIC "-//W3C//DTD SVG 20010904//EN"
 "http://www.w3.org/TR/2001/REC-SVG-20010904/DTD/svg10.dtd">
<svg version="1.0" xmlns="http://www.w3.org/2000/svg"
 width="949.000000pt" height="949.000000pt" viewBox="0 0 949.000000 949.000000"
 preserveAspectRatio="xMidYMid meet">
<metadata>
Created by potrace 1.14, written by Peter Selinger 2001-2017
</metadata>
<g transform="translate(0.000000,949.000000) scale(0.100000,-0.100000)"
fill="#000000" stroke="none">
<path d="M1869 7159 c-6 -3 -9 -267 -7 -675 l3 -669 58 0 c31 0 57 -4 57 -8 0
-5 5 -5 12 -1 18 11 78 11 78 1 0 -5 8 -3 17 4 14 12 15 12 9 1 -7 -11 -4 -12
10 -4 11 5 28 7 39 5 11 -2 25 -4 30 -3 72 5 102 4 113 -3 7 -6 12 -6 12 0 0
5 15 8 33 6 17 -2 38 -4 45 -3 15 0 68 0 85 0 6 -1 29 1 50 3 20 2 37 0 37 -5
0 -5 8 -5 18 0 9 4 35 7 57 5 56 -4 56 -4 93 0 17 2 32 -1 32 -6 0 -6 5 -6 13
0 6 5 28 8 47 6 19 -1 45 -2 58 -2 48 0 113 -1 125 -1 6 -1 27 1 45 3 17 2 32
-1 32 -6 0 -6 5 -6 13 0 6 5 28 8 47 6 19 -1 45 -2 58 -2 48 0 113 -1 125 -1
6 -1 27 1 45 3 17 2 32 -1 32 -6 0 -6 5 -6 13 0 6 5 28 8 47 6 19 -1 45 -2 58
-2 48 0 113 -1 125 -1 6 -1 27 1 45 3 17 2 32 -1 32 -6 0 -6 5 -6 13 0 6 5 30
8 52 6 53 -5 56 -5 88 0 15 3 27 0 27 -7 0 -7 3 -8 8 -1 8 11 43 12 60 1 6 -3
13 -3 15 1 3 5 27 7 54 5 58 -3 53 -3 131 0 34 2 62 -1 62 -5 0 -5 5 -5 12 -1
18 11 78 11 78 1 0 -5 8 -3 17 4 14 12 15 12 9 1 -7 -11 -4 -12 10 -4 11 5 28
7 39 5 11 -2 25 -4 30 -3 72 5 102 4 113 -3 7 -6 12 -6 12 0 0 5 15 8 33 6 38
-4 44 -4 77 0 14 2 31 -1 38 -6 7 -6 12 -6 12 0 0 5 15 8 33 6 45 -5 48 -5 85
0 19 3 32 0 32 -7 0 -7 3 -8 8 -1 8 11 43 12 60 1 6 -3 13 -3 15 1 3 5 27 7
54 5 58 -3 53 -3 131 0 34 2 62 -1 62 -5 0 -5 5 -5 12 -1 18 11 78 11 78 1 0
-5 8 -3 17 4 14 12 15 12 9 1 -7 -11 -4 -12 10 -4 11 5 28 7 39 5 11 -2 25 -4
30 -3 72 5 102 4 113 -3 7 -6 12 -6 12 0 0 5 15 8 33 6 38 -4 44 -4 77 0 14 2
31 -1 38 -6 7 -6 12 -6 12 0 0 5 15 8 33 6 45 -5 48 -5 85 0 19 3 32 0 32 -7
0 -7 3 -8 8 -1 8 11 43 12 60 1 6 -3 13 -3 15 1 3 5 27 7 54 5 58 -3 53 -3
131 0 34 2 62 -1 62 -5 0 -5 5 -5 12 -1 18 11 78 11 78 1 0 -5 8 -3 17 4 14
12 15 12 9 1 -7 -11 -4 -12 10 -4 11 5 28 7 39 5 11 -2 27 -4 35 -3 16 0 159
0 175 0 6 -1 25 1 43 3 17 2 32 -1 32 -6 0 -6 5 -6 13 0 6 5 28 8 47 6 19 -1
45 -2 58 -2 48 0 113 -1 125 -1 6 -1 27 1 45 3 17 2 32 -1 32 -6 0 -6 5 -6 13
0 6 5 28 8 47 6 19 -1 45 -2 58 -2 48 0 113 -1 125 -1 6 -1 27 1 45 3 17 2 32
-1 32 -6 0 -6 5 -6 13 0 6 5 28 8 47 6 19 -1 45 -2 58 -2 48 0 113 -1 125 -1
6 -1 27 1 45 3 17 2 32 -1 32 -6 0 -4 6 -5 13 0 16 10 57 11 84 1 12 -4 25 -4
27 1 6 9 37 8 54 -3 9 -6 12 137 12 676 l0 683 -2931 0 c-1612 0 -2935 -3
-2940 -6z"/>
<path d="M2870 5290 c-13 -8 -15 -105 -15 -680 0 -664 0 -670 20 -671 101 -4
5844 -1 5851 3 15 10 11 1343 -4 1344 -6 1 -13 2 -14 4 -7 5 -48 6 -48 0 0 -8
-37 -6 -45 2 -3 2 -25 2 -50 -2 -25 -4 -45 -4 -45 1 0 4 -16 3 -35 -1 -19 -4
-37 -4 -40 0 -2 4 -23 4 -45 0 -22 -4 -40 -4 -40 1 0 5 -11 4 -25 -1 -16 -6
-26 -6 -31 1 -4 7 -10 7 -18 0 -7 -6 -16 -8 -20 -4 -9 9 -46 11 -46 3 0 -9
-32 -6 -48 4 -7 4 -12 2 -12 -4 0 -6 -5 -8 -12 -4 -16 10 -48 13 -48 4 0 -4
-7 -7 -15 -7 -8 0 -15 4 -15 9 0 5 -9 4 -19 -2 -14 -7 -22 -7 -26 0 -5 8 -11
8 -20 0 -10 -8 -15 -8 -20 0 -5 8 -11 8 -19 1 -7 -6 -16 -8 -20 -4 -9 9 -46
11 -46 3 0 -9 -32 -6 -48 4 -7 4 -12 2 -12 -4 0 -6 -5 -8 -12 -4 -17 11 -48
12 -48 3 0 -9 -20 -7 -37 4 -6 4 -14 3 -18 -3 -4 -6 -12 -7 -18 -3 -15 9 -47
11 -47 3 0 -9 -32 -6 -48 4 -7 4 -12 2 -12 -4 0 -6 -5 -8 -12 -4 -17 11 -48
12 -48 3 0 -9 -20 -7 -37 4 -6 4 -14 3 -18 -3 -4 -6 -12 -7 -18 -3 -15 9 -47
11 -47 3 0 -9 -32 -6 -48 4 -7 4 -12 2 -12 -4 0 -6 -5 -8 -12 -4 -17 11 -48
12 -48 3 0 -9 -20 -7 -37 4 -6 4 -14 3 -18 -3 -4 -6 -12 -7 -18 -3 -15 9 -47
11 -47 3 0 -9 -32 -6 -48 4 -7 4 -12 2 -12 -4 0 -6 -5 -8 -12 -4 -18 11 -48
12 -48 2 0 -5 -9 -4 -20 2 -11 6 -20 7 -20 2 0 -10 -30 -9 -48 2 -7 4 -12 2
-12 -4 0 -6 -5 -8 -12 -4 -17 11 -48 12 -48 3 0 -9 -20 -7 -37 4 -6 4 -14 3
-18 -3 -4 -6 -12 -7 -18 -3 -15 9 -47 11 -47 3 0 -9 -32 -6 -48 4 -7 4 -12 2
-12 -4 0 -6 -5 -8 -12 -4 -17 11 -48 12 -48 3 0 -9 -20 -7 -37 4 -6 4 -14 3
-18 -3 -4 -6 -12 -7 -18 -3 -15 9 -47 11 -47 3 0 -9 -32 -6 -48 4 -7 4 -12 2
-12 -4 0 -6 -5 -8 -12 -4 -17 11 -48 12 -48 3 0 -9 -20 -7 -37 4 -6 4 -14 3
-18 -3 -4 -6 -12 -7 -18 -3 -15 9 -47 11 -47 3 0 -9 -32 -6 -48 4 -7 4 -12 2
-12 -4 0 -6 -5 -8 -12 -4 -16 10 -48 13 -48 4 0 -4 -7 -7 -15 -7 -8 0 -15 4
-15 9 0 5 -9 4 -19 -2 -14 -7 -22 -7 -26 0 -5 8 -11 8 -20 0 -10 -8 -15 -8
-20 0 -5 8 -11 8 -19 1 -7 -6 -16 -8 -20 -4 -9 9 -46 11 -46 3 0 -9 -32 -6
-48 4 -7 4 -12 2 -12 -4 0 -6 -5 -8 -12 -4 -17 11 -48 12 -48 3 0 -9 -26 -6
-36 4 -4 4 -13 2 -20 -4 -8 -7 -14 -7 -19 1 -4 7 -12 7 -25 0 -10 -6 -21 -6
-24 -2 -3 5 -26 6 -51 2 -25 -4 -45 -4 -45 1 0 4 -16 3 -35 -1 -19 -4 -37 -4
-40 0 -2 4 -23 4 -45 0 -22 -4 -40 -5 -40 -1 0 3 -13 6 -30 6 -16 0 -30 -3
-30 -6 0 -8 -33 -5 -48 5 -7 4 -12 2 -12 -4 0 -6 -5 -8 -12 -4 -17 11 -48 12
-48 3 0 -9 -20 -7 -37 4 -6 4 -14 3 -18 -3 -4 -6 -12 -7 -18 -3 -15 9 -47 11
-47 3 0 -9 -32 -6 -48 4 -7 4 -12 2 -12 -4 0 -6 -5 -8 -12 -4 -17 11 -48 12
-48 3 0 -9 -20 -7 -37 4 -6 4 -14 3 -18 -3 -4 -6 -12 -7 -18 -3 -15 9 -47 11
-47 3 0 -9 -32 -6 -48 4 -7 4 -12 2 -12 -4 0 -6 -5 -8 -12 -4 -16 10 -48 13
-48 4 0 -8 -37 -6 -45 2 -3 2 -25 2 -50 -2 -25 -4 -45 -4 -45 1 0 4 -16 3 -35
-1 -19 -4 -37 -4 -40 0 -2 4 -23 4 -45 0 -22 -4 -40 -4 -40 1 0 5 -11 4 -25
-1 -16 -6 -26 -6 -31 1 -4 7 -10 7 -18 0 -7 -6 -16 -8 -20 -4 -9 9 -46 11 -46
3 0 -9 -32 -6 -48 4 -7 4 -12 2 -12 -4 0 -6 -5 -8 -12 -4 -16 10 -48 13 -48 4
0 -4 -7 -7 -15 -7 -8 0 -15 4 -15 9 0 5 -9 4 -19 -2 -14 -7 -22 -7 -26 0 -5 8
-11 8 -20 0 -10 -8 -15 -8 -20 0 -5 8 -11 8 -19 1 -7 -6 -16 -8 -20 -4 -9 9
-46 11 -46 3 0 -9 -32 -6 -48 4 -7 4 -12 2 -12 -4 0 -6 -5 -8 -12 -4 -17 11
-48 12 -48 3 0 -9 -20 -7 -37 4 -6 4 -14 3 -18 -3 -4 -6 -12 -7 -18 -3 -15 9
-47 11 -47 3 0 -9 -32 -6 -48 4 -7 4 -12 2 -12 -4 0 -6 -5 -8 -12 -4 -17 11
-48 12 -48 3 0 -9 -20 -7 -37 4 -6 4 -14 3 -18 -3 -4 -6 -12 -7 -18 -3 -15 9
-47 11 -47 3 0 -9 -32 -6 -48 4 -7 4 -12 2 -12 -4 0 -6 -5 -8 -12 -4 -17 11
-48 12 -48 3 0 -9 -20 -7 -37 4 -6 4 -14 3 -18 -3 -4 -6 -12 -7 -18 -3 -15 9
-47 11 -47 3 0 -9 -32 -6 -48 4 -7 4 -12 2 -12 -4 0 -6 -5 -8 -12 -4 -18 11
-48 12 -48 2 0 -5 -9 -4 -20 2 -11 6 -20 7 -20 2 0 -10 -30 -9 -48 2 -7 4 -12
2 -12 -4 0 -6 -5 -8 -12 -4 -17 11 -48 12 -48 3 0 -9 -20 -7 -37 4 -6 4 -14 3
-18 -3 -4 -6 -12 -7 -18 -3 -15 9 -47 11 -47 3 0 -8 -31 -7 -46 2 -5 4 -16 3
-24 -2z"/>
<path d="M1977 3302 c-16 -3 -17 -55 -17 -685 0 -478 3 -678 11 -670 6 6 25 7
50 3 24 -5 39 -3 39 3 0 5 5 5 13 -2 8 -6 16 -8 20 -5 8 8 57 12 57 4 0 -4 7
-7 15 -7 8 0 15 5 15 10 0 5 5 5 13 -1 7 -6 18 -8 24 -4 6 4 54 5 107 2 53 -3
96 -1 96 4 0 5 6 3 13 -3 8 -6 16 -8 20 -5 8 8 57 12 57 4 0 -4 7 -7 15 -7 8
0 15 5 15 10 0 5 6 4 13 -2 8 -6 16 -8 20 -5 8 8 57 12 57 4 0 -4 7 -7 15 -7
8 0 15 5 15 10 0 5 5 5 13 -1 7 -6 18 -8 24 -4 6 4 54 5 107 2 53 -3 96 -1 96
4 0 5 6 3 13 -3 8 -6 16 -8 20 -5 8 8 57 12 57 4 0 -4 7 -7 15 -7 8 0 15 5 15
10 0 5 6 4 13 -2 8 -6 16 -8 20 -5 8 8 57 12 57 4 0 -4 7 -7 15 -7 8 0 15 5
15 10 0 5 5 5 13 -1 7 -6 18 -8 24 -4 6 4 54 5 107 2 53 -3 96 -1 96 4 0 5 6
3 13 -3 8 -6 16 -8 20 -5 8 8 57 12 57 4 0 -4 7 -7 15 -7 8 0 15 5 15 10 0 5
6 4 13 -2 8 -6 16 -8 20 -5 8 8 57 12 57 4 0 -4 7 -7 15 -7 8 0 15 5 15 10 0
5 5 5 13 -1 7 -6 18 -8 24 -4 6 4 54 5 107 2 53 -3 96 -1 96 4 0 5 6 3 13 -3
8 -6 16 -8 20 -5 8 8 57 12 57 4 0 -4 7 -7 15 -7 8 0 15 5 15 10 0 5 6 4 13
-2 8 -6 16 -8 20 -5 8 8 57 12 57 4 0 -4 7 -7 15 -7 8 0 15 5 15 10 0 5 5 5
13 -1 7 -6 18 -8 24 -4 6 4 54 5 107 2 53 -3 96 -1 96 4 0 5 6 3 13 -3 8 -6
16 -8 20 -5 8 8 57 12 57 4 0 -4 7 -7 15 -7 8 0 15 5 15 10 0 5 6 4 13 -2 8
-6 16 -8 20 -5 8 8 57 12 57 4 0 -4 7 -7 15 -7 8 0 15 5 15 10 0 5 5 5 13 -1
7 -6 18 -8 24 -4 6 4 54 5 107 2 53 -3 96 -1 96 4 0 5 6 3 13 -3 8 -6 16 -8
20 -5 8 8 57 12 57 4 0 -4 7 -7 15 -7 8 0 15 5 15 10 0 5 6 4 13 -2 8 -6 16
-8 20 -5 8 8 57 12 57 4 0 -4 7 -7 15 -7 8 0 15 5 15 10 0 5 5 5 13 -1 8 -7
18 -7 27 -2 9 5 19 5 27 -2 9 -7 13 -7 13 2 0 9 3 10 13 1 8 -6 16 -8 20 -5 8
8 57 12 57 4 0 -4 7 -7 15 -7 8 0 15 5 15 10 0 5 6 4 13 -2 8 -6 16 -8 20 -5
8 8 57 12 57 4 0 -4 7 -7 15 -7 8 0 15 5 15 10 0 5 5 5 13 -1 7 -6 18 -8 24
-4 6 4 54 5 107 2 53 -3 96 -1 96 4 0 5 6 3 13 -3 8 -6 16 -8 20 -5 8 8 57 12
57 4 0 -4 7 -7 15 -7 8 0 15 5 15 10 0 5 6 4 13 -2 8 -6 16 -8 20 -5 8 8 57
12 57 4 0 -4 7 -7 15 -7 8 0 15 5 15 10 0 5 5 5 13 -1 7 -6 18 -8 24 -4 6 4
54 5 107 2 53 -3 96 -1 96 4 0 5 6 3 13 -3 8 -6 16 -8 20 -5 8 8 57 12 57 4 0
-4 7 -7 15 -7 8 0 15 5 15 10 0 5 6 4 13 -2 8 -6 16 -8 20 -5 8 8 57 12 57 4
0 -4 7 -7 15 -7 8 0 15 5 15 10 0 5 5 5 13 -1 7 -6 18 -8 24 -4 6 4 54 5 107
2 53 -3 96 -1 96 4 0 5 6 3 13 -3 8 -6 16 -8 20 -5 8 8 57 12 57 4 0 -4 7 -7
15 -7 8 0 15 5 15 10 0 5 6 4 13 -2 8 -6 16 -8 20 -5 8 8 57 12 57 4 0 -4 7
-7 15 -7 8 0 15 5 15 10 0 5 5 5 13 -1 7 -6 18 -8 24 -4 6 4 54 5 107 2 53 -3
96 -1 96 4 0 5 6 3 13 -3 8 -6 16 -8 20 -5 8 8 57 12 57 4 0 -4 7 -7 15 -7 8
0 15 5 15 10 0 5 6 4 13 -2 8 -6 16 -8 20 -5 8 8 57 12 57 4 0 -4 7 -7 15 -7
8 0 15 5 15 10 0 5 5 5 13 -1 7 -6 18 -8 24 -4 6 4 54 5 107 2 53 -3 96 -1 96
4 0 5 6 3 13 -3 8 -6 16 -8 20 -5 8 8 57 12 57 4 0 -4 7 -7 15 -7 8 0 15 5 15
10 0 5 6 4 13 -2 8 -6 16 -8 20 -5 8 8 57 12 57 4 0 -4 7 -7 15 -7 8 0 15 5
15 10 0 5 6 5 13 -2 10 -8 18 -7 30 2 18 14 18 3 18 507 0 168 0 314 0 325 1
386 -2 505 -13 511 -11 7 -5816 13 -5851 6z"/>
</g>
</svg>
